<?xml version="1.0" encoding="utf-8"?>
<!-- Generator: Adobe Illustrator 24.1.1, SVG Export Plug-In . SVG Version: 6.00 Build 0)  -->
<svg version="1.1" id="Layer_1" xmlns="http://www.w3.org/2000/svg" xmlns:xlink="http://www.w3.org/1999/xlink" x="0px" y="0px"
	 viewBox="0 0 512 512" style="enable-background:new 0 0 512 512;" xml:space="preserve">
<style type="text/css">
	.st0{fill:#555555;}
</style>
<g>
	<path class="st0" d="M465.4,291.2c9.9,0,17.9,8,17.9,17.9v150.4c0.7,20.8-1.8,34.4-11.1,43c-8.7,8-21.2,10.3-37.5,9.4l-354.2,0
		c-16.4-0.8-29.2-7.5-35.2-21c-3.9-8.9-5.8-19.4-5.8-31.5V309.1c0-9.9,8-17.9,17.9-17.9s17.9,8,17.9,17.9v150.3
		c0,5.9,0.6,10.7,1.8,14.4l0.9,2.5L78,476c0-0.3,0.8-0.2,3.4,0l354.3,0c6.3,0.3,10.3,0,11.7,0l0.1,0c-0.3-1.4,0.3-6.9,0-15.9v-151
		C447.4,299.2,455.5,291.2,465.4,291.2z M447.4,476l0.2,0.3l0.3-0.1l0-0.1L447.4,476z M267.1,0c6.8,0,12.8,2.7,18.5,7.6L506.4,216
		c7.2,6.8,7.5,18.1,0.7,25.3c-6.8,7.2-18.2,7.5-25.4,0.7L266.3,38.6L29.6,242.5c-7.5,6.5-18.8,5.6-25.3-1.9
		c-6.5-7.5-5.6-18.8,1.9-25.3L248,7.1l2.2-1.6C255.7,2,261.2,0,267.1,0z"/>
</g>
</svg>
